<?xml version="1.0" encoding="utf-8"?>
<!-- Generator: Adobe Illustrator 23.1.0, SVG Export Plug-In . SVG Version: 6.00 Build 0)  -->
<svg version="1.1" id="Layer_1" xmlns="http://www.w3.org/2000/svg" xmlns:xlink="http://www.w3.org/1999/xlink" x="0px" y="0px"
	 viewBox="0 0 358 327.9" style="enable-background:new 0 0 358 327.9;" xml:space="preserve">
<style type="text/css">
	.st0{fill:#FFFFFF;}
	.st1{fill:#D31772;}
</style>
<path class="st0" d="M45.3,4.6h259.9c3.4,0,6.2,2.8,6.2,6.2v303.1c0,3.4-2.8,6.2-6.2,6.2H45.3c-3.4,0-6.2-2.8-6.2-6.2V10.8
	C39.1,7.4,41.9,4.6,45.3,4.6z"/>
<g id="Group_409">
	<g id="Group_85">
		<path id="Path_299" class="st1" d="M185.2,12.7l8,18.5c0.2,0,0.6,0,0.7-0.2c3.3-4.4,4.5-4.7,7.8,0.1c2.7,4,4.9,8.3,6.7,12.8
			c1.4,3.5,0,6.4-4.9,7.2l0.9,1.3l4.8,0.3c2.3,3.8,4.8,7.5,6.8,11.4c3.8,7.3,7.3,14.8,11.1,22.1c1.9,2.8,3.7,5.7,5.2,8.8
			c0.6,2.9,0.8,5.9,0.6,8.9c0,1.8,0.2,3.6,0.6,5.4c1.7,6.8,1.7,6.7-4.9,8.9c-3.9,1.4-7.6,3.3-11.6,4.5c-1,0.3-3.1-1.1-3.9-2.3
			c-2.8-4-5.4-8.2-7.8-12.5c-3.1-4.3-3.4-10-0.6-14.5c2.2-3.2,1.3-7.6-1.9-9.8c-0.3-0.2-0.7-0.4-1.1-0.6c-5.6-2.8-9.6-8-10.7-14.1
			c-0.8-3.5-1.7-6.9-2.4-10.4c-0.6-2.7-1.3-3.1-4.7-1.9c-2-5-4.1-10.1-6.1-15.1c-0.4-0.9-0.6-2.2-1.3-2.5c-2.9-1.4-2.6-3.9-3-6.3
			c-0.2-1.5-1-3-1.3-4.4c-0.2-1.2-0.2-2.4-0.1-3.6c0.2-1.9,2.8-3.5,0.7-5.8c0.2-0.6,0.5-1.2,1.1-1.6
			C177.7,15.5,180.2,10.9,185.2,12.7L185.2,12.7z"/>
		<path id="Path_300" class="st1" d="M163.7,89.6c-3.6,1.7-7.3,3.1-11.1,4.2c-3,0.6-2.8,1.9-2.5,4.4l15.5-6.5l0.4,0.8
			c-0.3,0.4-0.5,0.8-0.8,1.2c-2.7,3.6-2.3,5.1,1.9,6.5c1.4,0.3,2.6,0.8,3.8,1.6c0.9,1.4,1.6,2.9,2.1,4.6c-0.6,0-0.1,0,0.4,0
			c0.6,0.2,1.1,0.4,1.7,0.7l-3.1,4.3l4.7,4.9l-0.7,1.5l3.1-0.6c0.2,0.9,0.6,1.8,1.1,2.7c0.8,0.7,1.6,1.4,2.6,1.9l-3,1.8l-2.2-3
			c-3.8,4.2-5.9,7-6.1,8.2c-0.8,0.9-1.5,1.9-2.1,3c-0.4,1-0.7,2-0.9,3c-0.8-0.6-1.5-1.2-2.3-1.9c-2.3-2.1-4.6-4.1-6.9-6.3
			c-0.8-0.9-1.5-1.8-2.1-2.9c-1.5-2.4-3.2-4.7-4.6-7.1c-0.4-1.2-0.7-2.4-0.9-3.7c-0.2-1.1-0.8-2.1-1.6-3c-2.7-2-2.1-4.5-1.5-7.1
			c0.2-1.3,0.3-2.6,0.3-3.8c-1.2,0.3-2.4,0.7-3.6,1c-0.4,0.1-0.7,0.1-1.1,0.1l0.8-4.6l-3.8-0.5l1.5-3.1h-7l2-3.4h-2.6l4.4-13.7
			l-3.5-4.1l-9.8,3.7c-1.8-0.7-3.6-1.6-5.3-2.6c-1.1-0.7-2-1.7-2.5-3c-1.1-4.6-4.2-8.5-8.3-10.7c-0.1,0-0.3-0.1-0.4-0.2
			c-5.8-5.5-8.8-13.4-8.2-21.3c0.2-1.5,0.9-2.9,2-4c1.2-0.6,2.5-0.6,3.6,0.1c2,2.3,3,2.8,4.7-0.4c3.7-6.4,7-6.3,12.5-1.5
			c6.4,7.1,11.8,15.1,15.9,23.7c1.1,1.7-0.4,5.1-1.5,7.6c0.1,0.2,0.3,0.7,0.4,0.7c6.2-0.2,8.7,4.1,11.6,8.6c2.5,4,5.9,7.5,8.7,11.4
			C161,84.7,162,86.8,163.7,89.6L163.7,89.6z"/>
		<path id="Path_301" class="st1" d="M125.5,263.3c1.5-0.9,3.5-2.1,5.6-3.2c0.3-0.2,1.6,0.5,1.6,0.8c0.1,0.9-0.2,1.8-0.7,2.5
			c-2.3,2.3-1.5,3.8,0.9,4.2c1.7,0,3.8-0.6,5.1,0.1c1.7,1.1,3.1,2.6,4.1,4.4c2.1,2.4,5.2,3.7,8.4,3.6c0.5,4.5,2.5,9-3.1,12.3
			l-0.7-3.3c-2.7,1.9-5.1,4.1-8.3,1.4c-0.3-0.3-2.5,1.7-3.8,2.6c-3.5,2.4-6.9,4.9-10.6,7c-1.6,0.5-3.4,0.6-5.1,0.3
			c-1.2-0.1-2.3-0.5-3.4-1c-3-1.2-6.1-2.5-9.1-3.6c-3.3-1.2-7.1-1.5-8.9-5.3c-0.4-0.8-1.9-1-2.9-1.5c-5.8-3.5-11.6-7-17.4-10.4
			c-1.2-0.6-2.4-1.1-3.7-1.3c-4.4-0.9-5.7-4.3-3-7.9c6.2-10.4,19-14.8,30.3-10.5c4.5,2,8.9,4.4,12.9,7.2c1.2,0.5,2.5,0.9,3.8,1
			C120.1,262.7,122.5,262.9,125.5,263.3L125.5,263.3z"/>
		<g id="Group_84">
			<path id="Path_302" class="st1" d="M154.9,175.5c-0.3,1.4-0.6,2.8-0.9,4.2c-1.3,3.4-1.9,7.1-1.8,10.7c1.3,7.7,6,14.4,12.8,18.4
				l13.4-4.3L293.6,167l-5-8.1l3-5.2l-6.8,2.5l-0.5-1.3l7.9-3.4c-0.6-7.8-4.9-14.7-11.5-18.8c5.9-3.1,5.9-3.4,4.9-9.6
				c-1.7-5.1-1.2-10.6,1.5-15.3c0.9-1.4,1.2-3.1,1-4.8c-0.3-3.7,2.1-5.7,4.1-8.1c1-0.9,1.7-2.1,2.2-3.4c1.3-5.5,2.5-11.1,3.3-16.7
				c0.2-1.4-1.2-3-1.5-4.5c-0.3-1.1-0.5-3.3-0.2-3.4c5.5-2.3,4-7.3,4.6-11.4c0.1-1,0.1-2,0-3c-0.3-4.8-1.5-5.5-6-3.5
				c-1.2-2-2-6.5-4.9-1.2c0,0.1-0.2,0.4-0.2,0.3c-5.4-1.9-6.7,3.8-10.1,5.5c-3.9,2.4-5.1,7.5-2.8,11.4c0.1,0.2,0.3,0.5,0.5,0.7
				c1.8,1.9,2.1,4.8,0.8,7c-1.1,2.4-1.4,5-0.8,7.6c1.3,2.8,1,6-0.7,8.6c-0.4,1-0.6,2-0.6,3.1l-5.9,2.5c4.3,6,4.3,8.7,0.2,18.8
				c6.6,3.3,2.8,11.7,7.9,16.1l-3.7,3.5l2.1,2.5l-0.4,1l-4.2-1.3c-4.1,7.1-4.6,7.4-12.6,4.5c-3-1.1-6.8-0.6-8.6-4.3
				c-0.2-0.5-2.1,0.2-3-0.2c-6.2-3.1-12.7-0.5-19-0.8c-0.5,0-1,1.2-1.6,1.6c-0.5,0.3-1,0.5-1.6,0.6c-0.1-2.2,0.4-4.6-0.6-6.1
				s-3.4-2.5-5.1-3.8l-1,1.2l4.9,6.6c-0.6,0.5-1.3,1-1.9,1.4c-1,0.3-2,0.6-3,1c-4.1,3.1-8.1,6.4-12.3,9.3c-1.1,0.4-2.2,0.4-3.3,0
				c-4.3-0.8-8.7,0.6-11.8,3.7c-0.9,0.9-1.9,1.7-3,2.3c-5.7,3.3-11.6,6.5-17.2,10s-10.9,7.3-15.9,10.7c-1.7-0.8-3.4-1.6-5-2.5
				c-0.8-0.6-1.3-1.4-1.5-2.3c-0.3-2.7-0.2-5.5-0.5-8.2c-0.4-1.5-0.9-2.9-1.5-4.3c-0.6-2.8-1.5-5.5-2.7-8.1l0.1,3.4l-1,0.7
				c-1.7-7.2-5.1-12.6-12.8-13.2c-2.2-3-4.4-6-6.8-9c-1.1-1.5-1.4-3.7-4.4-2.8c-0.8,0.3-2.4-2.8-3.9-4s-3.8-1.8-5.4-3.1
				c-2.1-2-4.2-4.1-6-6.3l-2.2,2c0.2-2.8-0.1-5.7-0.9-8.4c-1.6-2.4-3.7-4.5-6.1-6.2c-3.2-2.9-6.5-5.7-9.8-8.4
				c-0.8-0.6-1.6-1.1-2.5-1.5c-3.3,5.6-9.1,5.4-14.8-0.3c-8.5,7.8-6.3,12.9-1.1,20.6c5.4,6.1,12.1,11,19.5,14.3
				c1.5,1,4.3-0.2,6.8-0.4c3.6,2.8,4.2,10.5,12.4,8.6l-0.3,2c3.6,0.4,6.2,3.6,5.8,7.2c0,0.4-0.1,0.8-0.2,1.2
				c5.4,5.7,13.4,8.9,14.5,17.9c0.4,3.4,4.1,4.6,7,1.8l-0.7,5.1l5.6,2.4h5.8l-1.8,4.1h10.3C152,175.1,153.4,175.4,154.9,175.5
				L154.9,175.5z"/>
			<path id="Path_303" class="st1" d="M237.5,301.9l9.4-29l22.6-69.5l-69.6,22.6l-20.9,6.8c-0.1,3.7,0.1,7.4,0.6,11.1l1.4,3.9
				l-4.9,5.9l0.5,0.6l3.3-1c-2.1,3.6,0.3,3.1,2,3.3c1.3,2.2-6.6,9.5-11.9,14c-1.6,1-3.1,2.3-4.4,3.7c-0.7,0.8-1.7,2.4-1.5,2.7
				c3,3.2-0.5,5.4-0.7,8.8l-5-4.9l0.4-0.6l-2.7-4.6c-2.2-0.6-3.9-0.4-2.6,3.8c0.5,2.8,0.7,5.7,0.6,8.5c4.9,2.4,9.3,5.7,12.9,9.8
				c3.5,3.5,8.2,5.6,13.1,5.7c7.6,0.7,15,2.7,21.8,5.9c6.5,2.5,13.1,4.7,19.9,6.4c1.7,0.5,3.8-0.7,5.7-1.1c0.4-0.1,0.7-0.2,1.1-0.4
				l1.6,3.3l11.9-4l4.8,1.1l2.5-0.9L237.5,301.9L237.5,301.9z"/>
			<path id="Path_304" class="st1" d="M311.4,250.9v-3c-0.3,0.2-0.5,0.4-0.8,0.6l0.8-22.7l0,0v-18.1l-6.9-16l2.5-1l-1.6-0.5
				c-0.5-1.6-1.2-3.2-1.6-4.9l-35.5,109.1l-4.6,14.3l1.7-0.5c1.7-1.3,3.5-2.3,5.5-3.1c5.5-1,9.8-5.4,16.3-3.8
				c5.2,2.1,11.3,0.8,15.1-3.4c0.5-0.6,1.1-1.3,1.6-1.8h-1.2l5-20.8l2.9,5.5c0-4.4,0.1-8.7,0.5-13.1c0-0.9,0.1-1.7,0.2-2.5
				s0.1-1.5,0.2-2.3s0.2-1.5,0.3-2.3c0.3-2.5,0.7-5,1.1-7.6C312,252.8,311.3,251.9,311.4,250.9L311.4,250.9z"/>
		</g>
	</g>
</g>
</svg>
