<?xml version="1.0" encoding="utf-8"?>
<!-- Generator: Adobe Illustrator 23.1.0, SVG Export Plug-In . SVG Version: 6.00 Build 0)  -->
<svg version="1.1" id="Layer_1" xmlns="http://www.w3.org/2000/svg" xmlns:xlink="http://www.w3.org/1999/xlink" x="0px" y="0px"
	 viewBox="0 0 500 183.9" style="enable-background:new 0 0 500 183.9;" xml:space="preserve">
<style type="text/css">
	.st0{fill:#231F20;}
</style>
<g id="Group_388">
	<path id="Path_23" class="st0" d="M29.8,179.6L119.4,4.5l89.5,175.1c-13.6,0-26,0.2-38.5-0.2c-1.9,0-4.3-2.8-5.4-4.9
		c-13.9-26.8-27.7-53.6-41.5-80.5c-1.2-2.4-2.6-4.7-4.3-7.8c-8,15.4-15.6,30.2-23.2,45S80.8,161,73,175.7c-1,1.9-2.8,3.3-4.8,3.8
		C55.8,179.8,43.4,179.6,29.8,179.6L29.8,179.6z"/>
	<path id="Path_24" class="st0" d="M420.3,60.1v119.1h-28.4V36.4h78V60L420.3,60.1z"/>
	<path id="Path_25" class="st0" d="M384.4,36.4v142.9h-28V60.5h-48.6v-24L384.4,36.4L384.4,36.4z"/>
	<path id="Path_26" class="st0" d="M254.1,179.5h-27.7V5h27.7V179.5z"/>
	<path id="Path_27" class="st0" d="M262,5h27.8v174.1H262V5z"/>
	<path id="Path_28" class="st0" d="M470.2,5.1v23.3H307.7V5.1L470.2,5.1L470.2,5.1z"/>
</g>
</svg>
