<?xml version="1.0" encoding="utf-8"?>
<!-- Generator: Adobe Illustrator 23.1.0, SVG Export Plug-In . SVG Version: 6.00 Build 0)  -->
<svg version="1.1" id="Layer_1" xmlns="http://www.w3.org/2000/svg" xmlns:xlink="http://www.w3.org/1999/xlink" x="0px" y="0px"
	 viewBox="0 0 500 192.5" style="enable-background:new 0 0 500 192.5;" xml:space="preserve">
<style type="text/css">
	.st0{fill:#303030;}
	.st1{font-family:'SegoeUI-Bold';}
	.st2{font-size:198.38px;}
	.st3{letter-spacing:-3;}
	.st4{font-family:'ArialMT';}
	.st5{font-size:40.85px;}
	.st6{letter-spacing:5;}
	.st7{letter-spacing:3;}
</style>
<text transform="matrix(1 0 0 1 36.12 143.1876)" class="st0 st1 st2">a</text>
<text transform="matrix(1 0 0 1 142.87 143.1876)" class="st0 st1 st2 st3">P</text>
<text transform="matrix(1 0 0 1 259.79 143.1876)" class="st0 st1 st2">ay</text>
<text transform="matrix(1 0 0 1 55.15 188.7876)" class="st0 st4 st5 st6">I</text>
<text transform="matrix(1 0 0 1 71.88 188.7876)" class="st0 st4 st5 st6">t</text>
<text transform="matrix(1 0 0 1 92.03 188.7876)" class="st0 st4 st5 st7">’</text>
<text transform="matrix(1 0 0 1 107.11 188.7876)" class="st0 st4 st5 st6">s Secu</text>
<text transform="matrix(1 0 0 1 266.04 188.7876)" class="st0 st4 st5 st6">r</text>
<text transform="matrix(1 0 0 1 286.13 188.7876)" class="st0 st4 st5 st6">ed</text>
<text transform="matrix(1 0 0 1 344.99 188.7876)" class="st0 st4 st5 st7">.</text>
</svg>
