<?xml version="1.0" encoding="utf-8"?>
<!-- Generator: Adobe Illustrator 23.1.0, SVG Export Plug-In . SVG Version: 6.00 Build 0)  -->
<svg version="1.1" id="Layer_1" xmlns="http://www.w3.org/2000/svg" xmlns:xlink="http://www.w3.org/1999/xlink" x="0px" y="0px"
	 viewBox="0 0 500 126.8" style="enable-background:new 0 0 500 126.8;" xml:space="preserve">
<path d="M144.7,125.7c-1.9,0-3.6-0.7-5.1-2.1c-1.4-1.4-2.1-3.1-2.1-4.9V31c0-10.2-3.5-15.3-10.5-15.3c-1.4,0-2.9,0.3-4.7,0.9
	c-1.7,0.6-3.2,2-4.5,4.1s-1.9,5.4-1.9,10v69c0,6.9-1.4,12.2-4.3,16c-2.9,3.8-6.2,6.4-10.1,7.8c-3.8,1.4-7.3,2.1-10.3,2.1
	s-6.4-0.7-10.3-2.1s-7.2-4-10-7.8c-2.8-3.8-4.3-9.1-4.5-15.8V30.5c0-4.5-0.6-7.8-1.9-9.9c-1.3-2.1-2.7-3.5-4.4-4.1
	c-1.7-0.6-3.1-0.9-4.4-0.9c-1,0-2.4,0.3-4.1,0.9c-1.7,0.6-3.3,2-4.7,4.1S45,25.8,45,30.2v88.5c0,1.8-0.7,3.5-2.1,4.9s-3,2.1-5,2.1
	c-1.8,0-3.4-0.7-4.8-2.1c-1.4-1.4-2.1-3-2.1-4.8V29.5c0-7.8,1.6-13.7,4.7-17.6c3.2-4,6.7-6.6,10.6-8c3.9-1.4,7.1-2.1,9.5-2.1
	c5.3,0,10.3,1.7,15,5.2c6.4,4.8,9.6,12.7,9.6,23.8v67.2c0,3.8,0.6,6.7,1.9,8.6c2.1,3.6,5.1,5.3,8.9,5.3c1.4,0,2.9-0.4,4.5-1.2
	c4.3-2,6.4-6.3,6.4-12.9v-67c0-10.9,3.3-18.8,10-23.6c4.7-3.6,9.6-5.3,14.8-5.3s10.2,1.7,14.8,5.2c6.4,4.9,9.6,13,9.6,24.3v87.7
	c0,1.8-0.7,3.4-2,4.8C148.1,125,146.5,125.7,144.7,125.7L144.7,125.7z"/>
<path d="M201.4,125.7c-10,0-18.5-3.6-25.6-10.7c-7.1-7.1-10.6-15.7-10.6-25.7S168.7,71,175.8,64s15.6-10.6,25.7-10.6
	s18.3,3.5,25.4,10.6s10.6,15.6,10.6,25.6c0,1.8-0.7,3.4-2,4.8c-1.3,1.4-3,2.1-4.9,2.1h-17.1c-1.9,0-3.6-0.7-5-2.1s-2.1-3-2.1-5
	c0-1.8,0.7-3.4,2.1-4.7c1.4-1.3,3-2,4.8-2h8.1c0.6,0,0.9-0.2,0.9-0.7c-1.4-4.3-4.4-7.9-8.9-10.9c-4-2.6-8.2-4-12.6-4
	c-6.2,0.3-11.4,2.6-15.6,6.9s-6.3,9.4-6.3,15.5s2.2,11.5,6.6,15.8s9.7,6.5,15.8,6.5c1.9,0,3.6,0.7,4.9,2s2,3,2,4.9
	c0,1.8-0.7,3.4-2,4.8C204.9,125,203.3,125.7,201.4,125.7L201.4,125.7z"/>
<path d="M317.1,125.7c-1.8,0-3.4-0.7-4.8-2.1s-2.1-3-2.1-4.8V89.7c0-6.2-2.2-11.5-6.6-15.9c-4.4-4.4-9.7-6.6-15.9-6.6
	s-11.5,2.2-15.9,6.6c-4.4,4.4-6.6,9.7-6.6,15.9v29.1c0,1.8-0.7,3.4-2,4.8s-3,2.1-4.9,2.1c-1.8,0-3.4-0.7-4.8-2.1s-2.1-3-2.1-4.8
	V89.7c0-10,3.6-18.5,10.7-25.7s15.7-10.7,25.7-10.7s18.5,3.6,25.7,10.7S324,79.7,324,89.7v29.1c0,1.8-0.7,3.4-2,4.8
	S319,125.7,317.1,125.7L317.1,125.7z"/>
<path d="M373.6,125.7c-10.2-0.3-18.8-4-25.7-10.9c-7-7-10.4-15.4-10.4-25.4V70.6c0-1-0.6-1.6-1.7-1.7h-5c-1.8,0-3.5-0.7-4.9-2.1
	s-2.1-3-2.1-5s0.7-3.6,2.1-4.8c1.4-1.3,3.1-1.9,4.9-1.9h5c1,0,1.6-0.6,1.7-1.7V39.6c0-1.9,0.7-3.6,2.1-5s3-2.1,5-2.1s3.6,0.7,4.8,2
	c1.3,1.3,1.9,3,1.9,4.9v13.9c0,1,0.6,1.6,1.7,1.7h15.5c2,0,3.6,0.7,5,2c1.4,1.3,2.1,3,2.1,4.9s-0.7,3.6-2,4.9s-3,2-4.9,2h-15.7
	c-1,0-1.6,0.6-1.7,1.7v18.8c0,6.2,2.2,11.5,6.6,15.9c4.4,4.4,9.7,6.6,15.9,6.6c2,0,3.6,0.7,4.9,2s2,3,2,4.9s-0.7,3.6-2.1,4.9
	S375.5,125.7,373.6,125.7L373.6,125.7z"/>
<path d="M453.3,125.7c-1.8,0-3.4-0.7-4.8-2.1s-2.1-3-2.1-4.8V89.4c0-6.2-2.2-11.5-6.5-15.8c-4.4-4.4-9.6-6.5-15.8-6.5
	s-11.5,2.2-15.8,6.5c-4.4,4.4-6.5,9.6-6.5,15.8s2.2,11.5,6.5,15.9c4.4,4.4,9.6,6.6,15.8,6.6c2,0,3.6,0.7,4.9,2s2,3,2,4.9
	c0,1.8-0.7,3.4-2,4.8s-3,2.1-4.9,2.1c-10,0-18.5-3.6-25.6-10.7s-10.6-15.7-10.6-25.7s3.5-18.5,10.6-25.7S414,53,424,53
	s18.5,3.6,25.6,10.7s10.6,15.7,10.6,25.7v29.5c0,1.8-0.7,3.4-2,4.8S455.2,125.7,453.3,125.7L453.3,125.7z"/>
<path d="M481.9,125.7c-2.2,0-4-0.8-5.6-2.4c-1.5-1.6-2.3-3.5-2.3-5.7c0-2.3,0.8-4.2,2.3-5.8c1.5-1.5,3.4-2.3,5.6-2.3
	c2.3,0,4.2,0.8,5.8,2.3c1.5,1.5,2.3,3.5,2.3,5.8s-0.8,4.1-2.3,5.7S484.2,125.7,481.9,125.7z"/>
</svg>
